<svg width="36" height="31" viewBox="0 0 36 31" fill="none" xmlns="http://www.w3.org/2000/svg">
<path d="M34.8465 8.0934H0.929032C0.418065 8.0934 0 7.67195 0 7.15685V0.936556C0 0.42145 0.418065 0 0.929032 0H34.8465C35.3574 0 35.7755 0.42145 35.7755 0.936556V7.15685C35.7755 7.67195 35.3574 8.0934 34.8465 8.0934Z" fill="white"/>
<path d="M34.8465 8.0934H0.929032C0.418065 8.0934 0 7.67195 0 7.15685V0.936556C0 0.42145 0.418065 0 0.929032 0H34.8465C35.3574 0 35.7755 0.42145 35.7755 0.936556V7.15685C35.7755 7.67195 35.3574 8.0934 34.8465 8.0934Z" transform="translate(0 10.8875)" fill="white"/>
<path d="M34.8465 8.0934H0.929032C0.418065 8.0934 7.38329e-09 7.67195 7.38329e-09 7.15685V0.936556C7.38329e-09 0.42145 0.418065 0 0.929032 0H34.8465C35.3574 0 35.7755 0.42145 35.7755 0.936556V7.15685C35.7755 7.67195 35.3574 8.0934 34.8465 8.0934Z" transform="translate(0.224487 22.9066)" fill="white"/>
</svg>
