<svg width="32" height="32" viewBox="0 0 32 32" fill="none" xmlns="http://www.w3.org/2000/svg">
<g filter="url(#filter0_d)">
<path d="M7.21311 24H0.786885C0.354098 24 0 23.6459 0 23.2131V0.786885C0 0.354098 0.354098 0 0.786885 0H7.21311C7.6459 0 8 0.354098 8 0.786885V23.2131C8 23.6459 7.6459 24 7.21311 24Z" transform="translate(12)" fill="#6ABA36"/>
<path d="M0 7.21311V0.786885C0 0.354098 0.354098 0 0.786885 0H23.2131C23.6459 0 24 0.354098 24 0.786885V7.21311C24 7.6459 23.6459 8 23.2131 8H0.786885C0.354098 8 0 7.6459 0 7.21311Z" transform="translate(4 7.93433)" fill="#6ABA36"/>
</g>
<defs>
<filter id="filter0_d" x="0" y="0" width="32" height="32" filterUnits="userSpaceOnUse" color-interpolation-filters="sRGB">
<feFlood flood-opacity="0" result="BackgroundImageFix"/>
<feColorMatrix in="SourceAlpha" type="matrix" values="0 0 0 0 0 0 0 0 0 0 0 0 0 0 0 0 0 0 255 0"/>
<feOffset dy="4"/>
<feGaussianBlur stdDeviation="2"/>
<feColorMatrix type="matrix" values="0 0 0 0 0 0 0 0 0 0 0 0 0 0 0 0 0 0 0.25 0"/>
<feBlend mode="normal" in2="BackgroundImageFix" result="effect1_dropShadow"/>
<feBlend mode="normal" in="SourceGraphic" in2="effect1_dropShadow" result="shape"/>
</filter>
</defs>
</svg>
